<?xml version="1.0" encoding="utf-8"?>
<!-- Svg Vector Icons : http://www.onlinewebfonts.com/icon -->
<!DOCTYPE svg PUBLIC "-//W3C//DTD SVG 1.1//EN" "http://www.w3.org/Graphics/SVG/1.1/DTD/svg11.dtd">
<svg version="1.1" xmlns="http://www.w3.org/2000/svg" xmlns:xlink="http://www.w3.org/1999/xlink" x="0px" y="0px" viewBox="0 0 1000 1000" enable-background="new 0 0 1000 1000" xml:space="preserve">
<metadata> Svg Vector Icons : http://www.onlinewebfonts.com/icon </metadata>
<g><path d="M768.9,10.7c-122.1,0-221.1,95.7-221.1,213.8c0,118.1,99,213.8,221.1,213.8C891,438.4,990,342.6,990,224.5C990,106.5,891,10.7,768.9,10.7z M768.9,389.6c-94.2,0-170.6-73.9-170.6-165c0-91.1,76.3-165,170.6-165s170.6,73.9,170.6,165C939.5,315.7,863.1,389.6,768.9,389.6z M839.4,810.8c-1.7-0.4-3.5-0.5-5.3-0.5H397.6l-19.9-73.4l367.7-27.4c14.1-1,24.7-12.5,24.4-26l32.7-203.4c-11,1.5-22.2,2.2-33.6,2.2c-6.8,0-13.5-0.3-20.1-0.8l-28.7,178.6l-356,26.4l-93.6-345.1h272.2c-8.1-16.1-14.6-33.3-19.2-51.1H258.6c-0.6,0-1.3,0-1.9,0.1l-31.7-117c-0.4-13.8-12.1-24.8-26.4-24.8H36.4c-14.6,0-26.4,11.4-26.4,25.6c0,14.1,11.8,25.6,26.4,25.6h141L343,810.3h-49.5c-1.7,0-3.3,0.2-4.9,0.5c-3.1-0.3-6.3-0.5-9.5-0.5c-51.1,0-92.5,40-92.5,89.5c0,49.4,41.4,89.5,92.5,89.5c51.1,0,92.5-40.1,92.5-89.5c0-14.7-3.7-28.5-10.1-40.7H373c2.4,0.3,4.9,0.3,7.4,0h366.5c-6.5,12.2-10.1,26-10.1,40.7c0,49.4,41.4,89.5,92.5,89.5c51.1,0,92.5-40.1,92.5-89.5C921.8,853.6,885.7,815.7,839.4,810.8z M279.1,948.6c-27.9,0-50.5-21.8-50.5-48.8c0-27,22.6-48.8,50.5-48.8c27.9,0,50.5,21.9,50.5,48.8C329.5,926.7,306.9,948.6,279.1,948.6z M829.3,948.6c-27.9,0-50.5-21.8-50.5-48.8c0-27,22.6-48.8,50.5-48.8c27.8,0,50.5,21.9,50.5,48.8C879.8,926.7,857.2,948.6,829.3,948.6z M881.3,201.3H793v-85.4c0-8.6-7.2-15.5-16-15.5h-16c-8.9,0-16,6.9-16,15.5v85.4h-88.2c-8.9,0-16.1,6.9-16.1,15.5v15.5c0,8.6,7.2,15.5,16.1,15.5h88.2v85.4c0,8.6,7.2,15.5,16,15.5h16c8.9,0,16-7,16-15.5v-85.4h88.3c8.8,0,16-7,16-15.5v-15.5C897.3,208.2,890.1,201.3,881.3,201.3z"/></g>
</svg>